<?xml version="1.0" encoding="UTF-8" standalone="no"?>
<!DOCTYPE svg PUBLIC "-//W3C//DTD SVG 1.1//EN" "http://www.w3.org/Graphics/SVG/1.1/DTD/svg11.dtd">
<svg viewBox="0 0 700 200" version="1.1" xmlns="http://www.w3.org/2000/svg" xmlns:xlink="http://www.w3.org/1999/xlink" xml:space="preserve" xmlns:serif="http://www.serif.com/" style="fill-rule:evenodd;clip-rule:evenodd;stroke-linejoin:round;stroke-miterlimit:2;">
    <g id="object-0" transform="matrix(0.412798,0,0,0.412798,33.5455,31.4438)">
        <path d="M79.215,66.736C79.215,66.736 116.139,34.156 134.384,18.517C152.629,2.878 180.134,6.491 193.166,17.786C206.198,29.081 252.977,70.646 270.353,85.85C287.729,101.054 284.3,125.015 270.834,138.047C257.368,151.079 218.476,184.826 190.24,209.152C162.004,233.478 121.353,220.082 103.977,201.402C86.601,182.722 90.53,150.394 103.746,138.528C116.962,126.662 152.492,94.173 160.746,87.656C169,81.139 177.505,84.342 182.603,89.76C187.701,95.178 189.166,103.043 182.215,109.559C175.264,116.075 146.455,138.94 133.423,151.538C120.391,164.136 124.393,179.682 131.778,186.198C139.163,192.714 158.917,196.67 168.474,188.416C178.031,180.162 229.954,135.372 238.642,126.684C247.33,117.996 247.581,117.196 247.146,111.983C246.711,106.77 244.974,104.781 240.196,100.437C235.418,96.093 180.34,47.281 175.128,42.502C169.916,37.723 161.752,35.894 155.67,40.672C149.588,45.45 78.346,109.742 66.183,119.734C54.02,129.726 52.282,137.979 52.282,147.536C52.282,157.093 51.848,208.352 52.716,223.991C53.584,239.63 58.889,243.974 70.183,244.408C81.477,244.842 245.661,244.339 256.956,244.339C268.251,244.339 275.817,236.796 275.817,229.48C275.817,222.164 275.383,186.929 275.566,177.075C275.749,167.221 285.122,164.912 292.073,164.912C299.024,164.912 307.963,167.016 308.146,176.871C308.329,186.726 308.214,222.69 307.963,238.693C307.712,254.696 285.514,271.959 265.531,272.828C245.548,273.697 87.468,273.079 64.011,273.079C40.554,273.079 19.702,255.702 19.268,232.244C18.834,208.786 19.701,163.174 19.701,144.494C19.701,125.814 27.955,113.218 37.512,104.095C47.069,94.972 79.215,66.736 79.215,66.736Z" style="fill:rgb(0,168,160);fill-rule:nonzero;"/>
    </g>
    <g transform="matrix(1,0,0,1,23.1948,3.07752)">
        <g transform="matrix(96,0,0,96,151.692,107.257)">
            <path d="M0.192,-0.455L0.192,-0.439C0.217,-0.47 0.243,-0.493 0.27,-0.507C0.297,-0.522 0.328,-0.529 0.362,-0.529C0.403,-0.529 0.441,-0.518 0.475,-0.497C0.51,-0.476 0.537,-0.445 0.557,-0.404C0.577,-0.364 0.587,-0.315 0.587,-0.26C0.587,-0.219 0.581,-0.181 0.57,-0.147C0.558,-0.112 0.542,-0.084 0.522,-0.06C0.502,-0.037 0.478,-0.019 0.45,-0.007C0.423,0.006 0.393,0.012 0.362,0.012C0.324,0.012 0.292,0.005 0.266,-0.011C0.24,-0.026 0.215,-0.049 0.192,-0.078L0.192,0.122C0.192,0.181 0.171,0.21 0.128,0.21C0.103,0.21 0.086,0.202 0.078,0.187C0.07,0.172 0.066,0.15 0.066,0.121L0.066,-0.454C0.066,-0.479 0.071,-0.498 0.083,-0.511C0.094,-0.524 0.109,-0.53 0.128,-0.53C0.147,-0.53 0.162,-0.523 0.174,-0.51C0.186,-0.498 0.192,-0.479 0.192,-0.455ZM0.453,-0.261C0.453,-0.296 0.448,-0.327 0.437,-0.352C0.426,-0.377 0.411,-0.396 0.392,-0.41C0.373,-0.423 0.352,-0.43 0.329,-0.43C0.292,-0.43 0.261,-0.416 0.236,-0.387C0.211,-0.358 0.198,-0.315 0.198,-0.259C0.198,-0.206 0.211,-0.164 0.236,-0.135C0.261,-0.106 0.292,-0.091 0.329,-0.091C0.351,-0.091 0.372,-0.097 0.391,-0.11C0.41,-0.123 0.425,-0.142 0.436,-0.168C0.447,-0.194 0.453,-0.225 0.453,-0.261Z" style="fill:rgb(0,168,161);fill-rule:nonzero;"/>
        </g>
        <g transform="matrix(96,0,0,96,211.692,107.257)">
            <path d="M0.406,-0.063C0.374,-0.038 0.342,-0.019 0.312,-0.007C0.282,0.006 0.248,0.012 0.211,0.012C0.177,0.012 0.147,0.005 0.121,-0.008C0.095,-0.022 0.075,-0.04 0.061,-0.063C0.047,-0.086 0.04,-0.111 0.04,-0.138C0.04,-0.175 0.052,-0.206 0.075,-0.231C0.098,-0.257 0.13,-0.274 0.17,-0.283C0.178,-0.285 0.199,-0.29 0.233,-0.296C0.266,-0.303 0.295,-0.309 0.319,-0.315C0.343,-0.321 0.369,-0.328 0.397,-0.336C0.395,-0.371 0.388,-0.397 0.376,-0.413C0.363,-0.43 0.337,-0.438 0.298,-0.438C0.264,-0.438 0.239,-0.433 0.221,-0.424C0.204,-0.414 0.19,-0.4 0.177,-0.381C0.165,-0.362 0.157,-0.35 0.152,-0.344C0.147,-0.338 0.136,-0.335 0.119,-0.335C0.104,-0.335 0.091,-0.34 0.08,-0.349C0.069,-0.359 0.064,-0.371 0.064,-0.386C0.064,-0.41 0.072,-0.432 0.089,-0.455C0.105,-0.477 0.131,-0.495 0.167,-0.509C0.202,-0.524 0.245,-0.531 0.298,-0.531C0.356,-0.531 0.403,-0.524 0.436,-0.51C0.47,-0.496 0.493,-0.474 0.507,-0.444C0.521,-0.414 0.528,-0.375 0.528,-0.325C0.528,-0.294 0.528,-0.267 0.528,-0.246C0.527,-0.224 0.527,-0.2 0.527,-0.173C0.527,-0.148 0.531,-0.122 0.539,-0.094C0.548,-0.067 0.552,-0.05 0.552,-0.042C0.552,-0.028 0.545,-0.016 0.532,-0.005C0.52,0.007 0.505,0.012 0.489,0.012C0.475,0.012 0.462,0.006 0.448,-0.007C0.435,-0.02 0.421,-0.039 0.406,-0.063ZM0.397,-0.256C0.377,-0.249 0.349,-0.241 0.312,-0.233C0.274,-0.225 0.249,-0.219 0.234,-0.216C0.22,-0.212 0.206,-0.205 0.193,-0.194C0.18,-0.183 0.174,-0.167 0.174,-0.148C0.174,-0.128 0.181,-0.111 0.197,-0.096C0.212,-0.082 0.232,-0.075 0.257,-0.075C0.283,-0.075 0.308,-0.081 0.33,-0.093C0.352,-0.104 0.368,-0.119 0.379,-0.137C0.391,-0.157 0.397,-0.191 0.397,-0.237L0.397,-0.256Z" style="fill:rgb(0,168,161);fill-rule:nonzero;"/>
        </g>
        <g transform="matrix(96,0,0,96,267.474,107.257)">
            <path d="M0.192,-0.455L0.192,-0.439C0.217,-0.47 0.243,-0.493 0.27,-0.507C0.297,-0.522 0.328,-0.529 0.362,-0.529C0.403,-0.529 0.441,-0.518 0.475,-0.497C0.51,-0.476 0.537,-0.445 0.557,-0.404C0.577,-0.364 0.587,-0.315 0.587,-0.26C0.587,-0.219 0.581,-0.181 0.57,-0.147C0.558,-0.112 0.542,-0.084 0.522,-0.06C0.502,-0.037 0.478,-0.019 0.45,-0.007C0.423,0.006 0.393,0.012 0.362,0.012C0.324,0.012 0.292,0.005 0.266,-0.011C0.24,-0.026 0.215,-0.049 0.192,-0.078L0.192,0.122C0.192,0.181 0.171,0.21 0.128,0.21C0.103,0.21 0.086,0.202 0.078,0.187C0.07,0.172 0.066,0.15 0.066,0.121L0.066,-0.454C0.066,-0.479 0.071,-0.498 0.083,-0.511C0.094,-0.524 0.109,-0.53 0.128,-0.53C0.147,-0.53 0.162,-0.523 0.174,-0.51C0.186,-0.498 0.192,-0.479 0.192,-0.455ZM0.453,-0.261C0.453,-0.296 0.448,-0.327 0.437,-0.352C0.426,-0.377 0.411,-0.396 0.392,-0.41C0.373,-0.423 0.352,-0.43 0.329,-0.43C0.292,-0.43 0.261,-0.416 0.236,-0.387C0.211,-0.358 0.198,-0.315 0.198,-0.259C0.198,-0.206 0.211,-0.164 0.236,-0.135C0.261,-0.106 0.292,-0.091 0.329,-0.091C0.351,-0.091 0.372,-0.097 0.391,-0.11C0.41,-0.123 0.425,-0.142 0.436,-0.168C0.447,-0.194 0.453,-0.225 0.453,-0.261Z" style="fill:rgb(0,168,161);fill-rule:nonzero;"/>
        </g>
        <g transform="matrix(96,0,0,96,327.474,107.257)">
            <path d="M0.441,-0.226L0.18,-0.226C0.181,-0.196 0.187,-0.169 0.198,-0.146C0.21,-0.123 0.226,-0.105 0.246,-0.094C0.266,-0.082 0.287,-0.076 0.311,-0.076C0.327,-0.076 0.342,-0.078 0.355,-0.082C0.368,-0.086 0.381,-0.091 0.393,-0.099C0.405,-0.107 0.417,-0.116 0.427,-0.125C0.438,-0.134 0.451,-0.146 0.468,-0.162C0.475,-0.168 0.484,-0.171 0.497,-0.171C0.511,-0.171 0.522,-0.167 0.53,-0.16C0.539,-0.152 0.543,-0.142 0.543,-0.128C0.543,-0.116 0.538,-0.102 0.529,-0.086C0.519,-0.07 0.505,-0.054 0.486,-0.039C0.467,-0.024 0.443,-0.012 0.414,-0.002C0.385,0.007 0.352,0.012 0.315,0.012C0.229,0.012 0.163,-0.012 0.115,-0.061C0.068,-0.11 0.044,-0.176 0.044,-0.26C0.044,-0.299 0.05,-0.336 0.062,-0.369C0.073,-0.403 0.09,-0.432 0.113,-0.456C0.135,-0.48 0.163,-0.499 0.196,-0.511C0.229,-0.524 0.265,-0.531 0.305,-0.531C0.357,-0.531 0.402,-0.52 0.439,-0.498C0.476,-0.476 0.504,-0.447 0.523,-0.413C0.542,-0.378 0.551,-0.342 0.551,-0.306C0.551,-0.273 0.541,-0.251 0.522,-0.241C0.503,-0.231 0.476,-0.226 0.441,-0.226ZM0.18,-0.302L0.422,-0.302C0.419,-0.347 0.406,-0.381 0.385,-0.404C0.364,-0.427 0.336,-0.438 0.301,-0.438C0.268,-0.438 0.24,-0.427 0.219,-0.404C0.198,-0.381 0.185,-0.347 0.18,-0.302Z" style="fill:rgb(0,168,161);fill-rule:nonzero;"/>
        </g>
        <g transform="matrix(96,0,0,96,384.52,107.257)">
            <path d="M0.201,-0.18L0.201,-0.069C0.201,-0.042 0.195,-0.022 0.182,-0.008C0.169,0.005 0.153,0.012 0.134,0.012C0.115,0.012 0.099,0.005 0.086,-0.008C0.074,-0.022 0.068,-0.042 0.068,-0.069L0.068,-0.44C0.068,-0.5 0.09,-0.53 0.133,-0.53C0.155,-0.53 0.171,-0.523 0.181,-0.509C0.19,-0.495 0.196,-0.474 0.197,-0.447C0.213,-0.474 0.229,-0.495 0.246,-0.509C0.263,-0.523 0.285,-0.53 0.313,-0.53C0.341,-0.53 0.368,-0.523 0.395,-0.509C0.421,-0.495 0.434,-0.476 0.434,-0.453C0.434,-0.437 0.428,-0.423 0.417,-0.413C0.406,-0.402 0.394,-0.397 0.381,-0.397C0.376,-0.397 0.364,-0.4 0.345,-0.406C0.327,-0.412 0.31,-0.415 0.296,-0.415C0.276,-0.415 0.26,-0.41 0.248,-0.4C0.236,-0.389 0.226,-0.374 0.219,-0.354C0.212,-0.334 0.208,-0.31 0.205,-0.282C0.202,-0.254 0.201,-0.22 0.201,-0.18Z" style="fill:rgb(0,168,161);fill-rule:nonzero;"/>
        </g>
        <g transform="matrix(96,0,0,96,426.567,107.257)">
            <path d="M0.152,-0.447L0.239,-0.149L0.318,-0.426C0.326,-0.455 0.333,-0.475 0.337,-0.485C0.341,-0.496 0.348,-0.506 0.36,-0.515C0.371,-0.525 0.386,-0.53 0.406,-0.53C0.426,-0.53 0.441,-0.525 0.452,-0.515C0.464,-0.506 0.472,-0.495 0.476,-0.484C0.481,-0.473 0.487,-0.453 0.495,-0.426L0.574,-0.149L0.662,-0.447C0.668,-0.468 0.673,-0.484 0.676,-0.493C0.68,-0.503 0.686,-0.511 0.694,-0.519C0.703,-0.526 0.715,-0.53 0.731,-0.53C0.747,-0.53 0.761,-0.524 0.772,-0.513C0.784,-0.502 0.79,-0.489 0.79,-0.474C0.79,-0.46 0.785,-0.44 0.775,-0.412L0.666,-0.093C0.657,-0.066 0.649,-0.046 0.644,-0.034C0.639,-0.022 0.631,-0.011 0.619,-0.002C0.608,0.007 0.593,0.012 0.573,0.012C0.553,0.012 0.537,0.007 0.526,-0.003C0.514,-0.013 0.506,-0.025 0.5,-0.04C0.494,-0.055 0.488,-0.074 0.482,-0.097L0.406,-0.357L0.332,-0.097C0.322,-0.061 0.312,-0.034 0.3,-0.015C0.289,0.003 0.269,0.012 0.24,0.012C0.226,0.012 0.213,0.009 0.203,0.004C0.193,-0.002 0.184,-0.01 0.177,-0.021C0.17,-0.031 0.164,-0.044 0.159,-0.058C0.154,-0.073 0.15,-0.084 0.147,-0.093L0.039,-0.412C0.028,-0.442 0.023,-0.463 0.023,-0.474C0.023,-0.488 0.029,-0.501 0.04,-0.513C0.051,-0.524 0.065,-0.53 0.082,-0.53C0.104,-0.53 0.119,-0.524 0.127,-0.511C0.135,-0.498 0.143,-0.477 0.152,-0.447Z" style="fill:rgb(0,168,161);fill-rule:nonzero;"/>
        </g>
        <g transform="matrix(96,0,0,96,503.349,107.257)">
            <path d="M0.568,-0.259C0.568,-0.219 0.562,-0.182 0.549,-0.149C0.537,-0.115 0.519,-0.087 0.496,-0.063C0.472,-0.038 0.444,-0.02 0.412,-0.007C0.379,0.006 0.342,0.012 0.302,0.012C0.261,0.012 0.225,0.006 0.193,-0.007C0.161,-0.02 0.133,-0.039 0.109,-0.063C0.086,-0.087 0.068,-0.116 0.055,-0.149C0.043,-0.182 0.037,-0.219 0.037,-0.259C0.037,-0.299 0.043,-0.336 0.056,-0.37C0.068,-0.403 0.086,-0.432 0.109,-0.456C0.132,-0.479 0.16,-0.498 0.193,-0.51C0.226,-0.523 0.262,-0.53 0.302,-0.53C0.342,-0.53 0.379,-0.523 0.412,-0.51C0.444,-0.497 0.473,-0.479 0.496,-0.455C0.52,-0.431 0.537,-0.402 0.55,-0.369C0.562,-0.335 0.568,-0.299 0.568,-0.259ZM0.434,-0.259C0.434,-0.313 0.422,-0.355 0.398,-0.386C0.374,-0.416 0.342,-0.431 0.302,-0.431C0.276,-0.431 0.253,-0.424 0.233,-0.411C0.213,-0.397 0.198,-0.377 0.187,-0.351C0.176,-0.325 0.171,-0.294 0.171,-0.259C0.171,-0.224 0.176,-0.194 0.187,-0.167C0.197,-0.141 0.212,-0.122 0.232,-0.108C0.252,-0.094 0.275,-0.087 0.302,-0.087C0.342,-0.087 0.374,-0.102 0.398,-0.133C0.422,-0.163 0.434,-0.205 0.434,-0.259Z" style="fill:rgb(0,168,161);fill-rule:nonzero;"/>
        </g>
        <g transform="matrix(96,0,0,96,561.333,107.257)">
            <path d="M0.201,-0.18L0.201,-0.069C0.201,-0.042 0.195,-0.022 0.182,-0.008C0.169,0.005 0.153,0.012 0.134,0.012C0.115,0.012 0.099,0.005 0.086,-0.008C0.074,-0.022 0.068,-0.042 0.068,-0.069L0.068,-0.44C0.068,-0.5 0.09,-0.53 0.133,-0.53C0.155,-0.53 0.171,-0.523 0.181,-0.509C0.19,-0.495 0.196,-0.474 0.197,-0.447C0.213,-0.474 0.229,-0.495 0.246,-0.509C0.263,-0.523 0.285,-0.53 0.313,-0.53C0.341,-0.53 0.368,-0.523 0.395,-0.509C0.421,-0.495 0.434,-0.476 0.434,-0.453C0.434,-0.437 0.428,-0.423 0.417,-0.413C0.406,-0.402 0.394,-0.397 0.381,-0.397C0.376,-0.397 0.364,-0.4 0.345,-0.406C0.327,-0.412 0.31,-0.415 0.296,-0.415C0.276,-0.415 0.26,-0.41 0.248,-0.4C0.236,-0.389 0.226,-0.374 0.219,-0.354C0.212,-0.334 0.208,-0.31 0.205,-0.282C0.202,-0.254 0.201,-0.22 0.201,-0.18Z" style="fill:rgb(0,168,161);fill-rule:nonzero;"/>
        </g>
        <g transform="matrix(96,0,0,96,600.989,107.257)">
            <path d="M0.401,-0.049L0.283,-0.242L0.211,-0.174L0.211,-0.068C0.211,-0.042 0.204,-0.022 0.191,-0.009C0.177,0.005 0.162,0.012 0.144,0.012C0.124,0.012 0.107,0.005 0.096,-0.008C0.084,-0.022 0.078,-0.042 0.078,-0.069L0.078,-0.637C0.078,-0.667 0.084,-0.689 0.095,-0.705C0.107,-0.72 0.123,-0.728 0.144,-0.728C0.165,-0.728 0.181,-0.721 0.193,-0.707C0.205,-0.693 0.211,-0.672 0.211,-0.645L0.211,-0.322L0.361,-0.479C0.379,-0.499 0.394,-0.512 0.403,-0.519C0.413,-0.526 0.425,-0.53 0.439,-0.53C0.456,-0.53 0.469,-0.524 0.48,-0.514C0.492,-0.503 0.497,-0.49 0.497,-0.474C0.497,-0.455 0.479,-0.429 0.443,-0.396L0.372,-0.331L0.509,-0.116C0.519,-0.1 0.526,-0.088 0.531,-0.08C0.535,-0.072 0.537,-0.064 0.537,-0.056C0.537,-0.035 0.531,-0.018 0.52,-0.006C0.508,0.006 0.493,0.012 0.474,0.012C0.458,0.012 0.445,0.008 0.437,-0.001C0.428,-0.01 0.416,-0.026 0.401,-0.049Z" style="fill:rgb(0,168,161);fill-rule:nonzero;"/>
        </g>
    </g>
</svg>
